# xmcd
#
# Track frame offsets: 
#        182
#        20552
#        49652
#        75465
#        94782
#        121105
#        139475
#        158697
#        185642
#        205410
#        229722
#
# Disc length: 3262 seconds
#
# Revision: 1
# Processed by: cddbd v1.5.2PL0 Copyright (c) Steve Scherf et al.
# Submitted via: ExactAudioCopyFreeDBPlugin 1.0
#
DISCID=8d0cbc0b
DTITLE=DŻEM - Kilka zdartych płyt
DYEAR=1995
DGENRE=Blues
TTITLE0=Nie daj się farbowanym lisom
TTITLE1=Ja wiem - obojętność
TTITLE2=Dzikość mego serca
TTITLE3=Kilka zdartych płyt
TTITLE4=Powiedz czy słyszysz
TTITLE5=Buty, pięści, pas
TTITLE6=Kosmiczny pub
TTITLE7=W klatce
TTITLE8=Nie truj ojcze
TTITLE9=Wszystko wzięło w łeb
TTITLE10=Zapal świeczkę
EXTD=
EXTT0=
EXTT1=
EXTT2=
EXTT3=
EXTT4=
EXTT5=
EXTT6=
EXTT7=
EXTT8=
EXTT9=
EXTT10=
PLAYORDER=
